<svg xmlns="http://www.w3.org/2000/svg" version="1.1" xmlns:xlink="http://www.w3.org/1999/xlink" width="800" height="800"><svg xmlns="http://www.w3.org/2000/svg" xml:space="preserve" width="800" height="800" viewBox="0 0 460 460"><path d="M406.617 215C398.976 124.254 322.688 52.743 230 52.743S61.024 124.254 53.384 215H0v30h53.384c7.64 90.746 83.928 162.257 176.616 162.257S398.976 335.746 406.617 245H460v-30zM230 377.257c-81.198 0-147.257-66.059-147.257-147.257S148.802 82.743 230 82.743 377.258 148.802 377.258 230 311.198 377.257 230 377.257"></path><path d="M229.875 241.677 177.05 140.052h-37.229v178.599h34.713V200.423l46.033 88.042h18.867l46.033-88.042v118.228h34.714V140.052h-36.978z"></path></svg><style>@media (prefers-color-scheme: light) { :root { filter: none; } }
@media (prefers-color-scheme: dark) { :root { filter: invert(100%); } }
</style></svg>