<svg xmlns="http://www.w3.org/2000/svg" width="800" height="800"><svg xmlns="http://www.w3.org/2000/svg" width="800" height="800"><path d="M707.16 373.913C693.871 216.093 561.197 91.727 400 91.727S106.129 216.094 92.842 373.913H0v52.174h92.842C106.129 583.907 238.803 708.273 400 708.273s293.871-124.367 307.16-282.186H800v-52.174zM400 656.099C258.786 656.1 143.9 541.214 143.9 400S258.787 143.9 400 143.9 656.1 258.787 656.1 400 541.215 656.1 400 656.1" style="stroke-width:1.73913"/><path d="M400 565.68q-9.387 0-16.214-6.4-6.4-6.4-6.4-16.213V305.413h-64q-9.386 0-15.786-6.4-5.974-6.4-5.974-15.36t6.4-14.933q6.4-6.4 15.36-6.4H487.04q8.96 0 14.933 6.4 6.4 6.4 6.4 14.933 0 8.96-6.4 15.36-5.973 6.4-14.933 6.4h-64.427v237.654q0 9.813-6.826 16.213-6.4 6.4-15.787 6.4" aria-label="T" style="font-weight:700;font-size:426.667px;font-family:&quot;UKSH Netto&quot;;-inkscape-font-specification:&quot;UKSH Netto Bold&quot;;text-align:end;text-anchor:end;stroke-width:4.032;stroke-linecap:round;stroke-linejoin:round;paint-order:fill markers stroke"/></svg><style>@media (prefers-color-scheme:light){:root{filter:none}}@media (prefers-color-scheme:dark){:root{filter:invert(100%)}}</style></svg>