<svg xmlns="http://www.w3.org/2000/svg" xml:space="preserve" width="250" height="75" viewBox="104.8 49.784 250 75"><g style="fill:#000"><path d="M172.992 85.708c-1.194-14.189-13.122-25.37-27.614-25.37s-26.42 11.181-27.614 25.37h-8.347v4.69h8.347c1.194 14.189 13.122 25.37 27.614 25.37s26.42-11.181 27.614-25.37h8.347v-4.69Zm-27.614 25.369c-12.695 0-23.024-10.329-23.024-23.024s10.329-23.024 23.024-23.024 23.024 10.329 23.024 23.024-10.329 23.024-23.024 23.024"/><path d="M154.05 83.429v18.485h5.428V73.989h-5.782l-8.338 15.89-8.259-15.89h-5.82v27.925h5.427V83.429l7.197 13.765h2.95z"/></g><text x="183.576" y="86.112" font-family="Tahoma, Verdana, sans-serif" font-size="24" style="white-space:pre">TeleDrive</text><text x="340.595" y="105.264" fill="#7f7f7f" font-family="Tahoma, Verdana, sans-serif" font-size="18" style="white-space:pre"><tspan text-anchor="end">Motor Controller</tspan></text></svg>