<svg xmlns="http://www.w3.org/2000/svg" xml:space="preserve" width="250" height="75" viewBox="104.8 49.784 250 75"><path d="M566.96 162.97C553.671 5.15 420.997-119.216 259.8-119.216S-34.071 5.151-47.358 162.97H-140.2v52.174h92.842C-34.071 372.964 98.603 497.33 259.8 497.33s293.871-124.367 307.16-282.186h92.84V162.97ZM259.8 445.156C118.586 445.157 3.7 330.271 3.7 189.057s114.887-256.1 256.1-256.1 256.1 114.887 256.1 256.1-114.885 256.1-256.1 256.1" style="stroke-width:1.73913" transform="translate(122.02 71.056)scale(.0899)"/><path d="M259.8 354.737q-9.387 0-16.214-6.4-6.4-6.4-6.4-16.213V94.47h-64q-9.386 0-15.786-6.4-5.974-6.4-5.974-15.36t6.4-14.933q6.4-6.4 15.36-6.4H346.84q8.96 0 14.933 6.4 6.4 6.4 6.4 14.933 0 8.96-6.4 15.36-5.973 6.4-14.933 6.4h-64.427v237.654q0 9.813-6.826 16.213-6.4 6.4-15.787 6.4" aria-label="T" style="font-weight:700;font-size:426.667px;font-family:&quot;UKSH Netto&quot;;-inkscape-font-specification:&quot;UKSH Netto Bold&quot;;text-align:end;text-anchor:end;stroke-width:4.032;stroke-linecap:round;stroke-linejoin:round;paint-order:fill markers stroke" transform="translate(122.02 71.056)scale(.0899)"/><text x="183.576" y="86.112" font-family="Tahoma, Verdana, sans-serif" font-size="24" style="white-space:pre">TeleDrive</text><text x="340.595" y="105.264" fill="#7f7f7f" font-family="Tahoma, Verdana, sans-serif" font-size="18" style="white-space:pre"><tspan text-anchor="end">Web Logging</tspan></text></svg>